Patient4_TMGait_0pt2_02_left_16_GRF.mot
version=1
nRows=32
nColumns=19
inDegrees=no
endheader
time	F1x	F1y	F1z	M1x	M1y	M1z	F2x	F2y	F2z	M2x	M2y	M2z	EC1x	EC1y	EC1z	EC2x	EC2y	EC2z
36.65	-3.9539	20.5435	4.1131	-7.1836	-5.7313	23.3178	-16.999	792.9468	-55.8564	269.7762	73.8727	915.1299	-0.0592	0.0182	-0.0073	-0.0462	0.0165	0.9585
36.6714	-3.7271	16.7142	3.3894	-5.8256	-4.8586	18.7399	-19.3359	809.4298	-55.1973	275.9425	73.3186	932.1131	-0.0592	0.0182	-0.0073	-0.0462	0.0165	0.9585
36.6929	-3.176	12.4997	2.5557	-4.3499	-3.7699	13.8643	-21.4857	826.8422	-54.4071	282.3845	72.432	949.8933	-0.0592	0.0182	-0.0073	-0.0462	0.0165	0.9585
36.7143	-2.3775	8.4747	1.7133	-2.9489	-2.5983	9.3101	-23.219	842.4462	-53.5313	288.1088	71.2025	965.4602	-0.0592	0.0182	-0.0073	-0.0462	0.0165	0.9585
36.7357	-1.5459	5.1103	0.98318	-1.778	-1.5385	5.5582	-24.3296	853.4266	-52.6099	292.1137	69.6278	975.6862	-0.0592	0.0182	-0.0073	-0.0462	0.0165	0.9585
36.7571	-0.81868	2.5699	0.41995	-0.89285	-0.69291	2.7571	-24.6299	857.7387	-51.6762	293.6831	67.7136	978.2693	-0.0592	0.0182	-0.0073	-0.0462	0.0165	0.9585
36.7786	-0.25372	0.80319	0.029114	-0.27703	-0.089291	0.82604	-23.9936	854.6171	-50.7411	292.5584	65.4732	972.3231	-0.0592	0.0182	-0.0073	-0.0462	0.0165	0.9585
36.8	0.14047	-0.35537	-0.20885	0.12623	0.28916	-0.43028	-22.3882	844.6041	-49.7928	288.947	62.9317	958.4198	-0.0592	0.0182	-0.0073	-0.0462	0.0165	0.9585
36.8214	0.38341	-1.1186	-0.32542	0.39143	0.48259	-1.2543	-19.8639	829.2988	-48.8033	283.4298	60.1155	938.3202	-0.0592	0.0182	-0.0073	-0.0462	0.0165	0.9585
36.8429	0.50985	-1.7022	-0.35731	0.59644	0.54362	-1.898	-16.525	810.9235	-47.7459	276.8057	57.0562	914.499	-0.0592	0.0182	-0.0073	-0.0462	0.0165	0.9585
36.8643	0.55842	-2.2944	-0.34122	0.8096	0.52671	-2.5772	-12.5255	791.7848	-46.6164	269.8983	53.8145	889.5573	-0.0592	0.0182	-0.0073	-0.0462	0.0165	0.9585
36.8857	0.56668	-3.0384	-0.31302	1.0818	0.48504	-3.453	-8.0715	773.8301	-45.4501	263.4001	50.5039	865.7297	-0.0592	0.0182	-0.0073	-0.0462	0.0165	0.9585
36.9071	0.57114	-4.0124	-0.30964	1.4393	0.4723	-4.6124	-3.3888	758.4233	-44.3191	257.7954	47.2714	844.6218	-0.0592	0.0182	-0.0073	-0.0462	0.0165	0.9585
36.9286	0.60855	-5.2053	-0.3661	1.875	0.54258	-6.0384	1.3109	746.2776	-43.3162	253.3388	44.2687	827.1242	-0.0592	0.0182	-0.0073	-0.0462	0.0165	0.9585
36.95	0.71521	-6.4763	-0.51407	2.3349	0.74703	-7.5702	5.8372	737.5079	-42.5264	250.0738	41.6265	813.4631	-0.0592	0.0182	-0.0073	-0.0462	0.0165	0.9585
36.9714	0.92705	-7.5128	-0.78303	2.7021	1.1362	-8.8423	10.0312	731.7924	-42.0067	247.8888	39.4408	803.3731	-0.0592	0.0182	-0.0073	-0.0462	0.0165	0.9585
36.9929	1.2763	-7.7894	-1.1969	2.781	1.7499	-9.2347	13.7819	728.5544	-41.7826	246.5806	37.7686	796.2886	-0.0592	0.0182	-0.0073	-0.0462	0.0165	0.9585
37.0143	1.7826	-6.5284	-1.7635	2.2856	2.599	-7.8267	17.0254	727.0709	-41.855	245.8941	36.6286	791.4618	-0.0592	0.0182	-0.0073	-0.0462	0.0165	0.9585
37.0357	2.436	-2.6908	-2.4542	0.83737	3.6487	-3.386	19.7239	726.4799	-42.1996	245.5253	36.0083	787.9772	-0.0592	0.0182	-0.0073	-0.0462	0.0165	0.9585
37.0571	3.181	4.9663	-3.1843	-2.0153	4.7834	5.5736	21.8386	725.7346	-42.758	245.1056	35.8602	784.7111	-0.0592	0.0182	-0.0073	-0.0462	0.0165	0.9585
37.0786	3.8978	17.7478	-3.7934	-6.7404	5.769	20.6217	23.3275	723.5989	-43.4287	244.2066	36.0896	780.3339	-0.0592	0.0182	-0.0073	-0.0462	0.0165	0.9585
37.1	4.3727	36.727	-4.0189	-13.7144	6.2101	43.0667	24.1407	718.6751	-44.0537	242.3561	36.5449	773.3397	-0.0592	0.0182	-0.0073	-0.0462	0.0165	0.9585
37.1214	4.2573	62.2967	-3.4873	-23.0577	5.5306	73.4178	24.2178	709.5142	-44.4172	239.0775	37.0193	762.1693	-0.0592	0.0182	-0.0073	-0.0462	0.0165	0.9585
37.1429	3.1226	93.6769	-1.8083	-34.4542	3.1077	110.8009	23.5258	694.8346	-44.2967	233.962	37.2898	745.4373	-0.0592	0.0182	-0.0073	-0.0462	0.0165	0.9585
37.1643	0.90914	128.7737	1.2471	-47.1132	-1.3484	152.7564	22.1324	673.8102	-43.5323	226.7579	37.1614	722.2219	-0.0592	0.0182	-0.0073	-0.0462	0.0165	0.9585
37.1857	-1.9796	164.8287	5.388	-60.0381	-7.3323	195.9651	20.2445	646.3829	-42.0773	217.4652	36.5105	692.3819	-0.0592	0.0182	-0.0073	-0.0462	0.0165	0.9585
37.2071	-5.055	199.7119	9.8961	-72.4907	-13.8026	237.8325	18.1784	613.4812	-40.0098	206.4031	35.3067	656.8064	-0.0592	0.0182	-0.0073	-0.0462	0.0165	0.9585
37.2286	-8.0265	232.6407	14.1653	-84.2153	-19.9382	277.403	16.2642	576.9119	-37.5073	194.1731	33.6137	617.3213	-0.0592	0.0182	-0.0073	-0.0462	0.0165	0.9585
37.25	-10.7705	263.8791	17.8907	-95.3122	-25.3486	315.0074	14.723	538.9003	-34.7794	181.5092	31.5608	576.2301	-0.0592	0.0182	-0.0073	-0.0462	0.0165	0.9585
37.2714	-13.1977	293.868	21.0296	-105.9239	-29.9687	351.2033	13.6146	501.5817	-32.0189	169.1108	29.3106	535.7863	-0.0592	0.0182	-0.0073	-0.0462	0.0165	0.9585
37.2929	-15.2029	322.5473	23.6738	-115.9976	-33.8857	385.9577	12.846	466.6735	-29.411	157.5338	27.0665	497.8311	-0.0592	0.0182	-0.0073	-0.0462	0.0165	0.9585
37.3143	-16.7188	349.1578	25.9163	-125.225	-37.1956	418.4188	12.233	435.3591	-27.1273	147.1543	25.0537	463.6563	-0.0592	0.0182	-0.0073	-0.0462	0.0165	0.9585
